<?xml version="1.0" encoding="UTF-8" standalone="no"?><!DOCTYPE svg PUBLIC "-//W3C//DTD SVG 1.1//EN" "http://www.w3.org/Graphics/SVG/1.1/DTD/svg11.dtd"><svg width="100%" height="100%" viewBox="0 0 56 38" version="1.1" xmlns="http://www.w3.org/2000/svg" xmlns:xlink="http://www.w3.org/1999/xlink" xml:space="preserve" xmlns:serif="http://www.serif.com/" style="fill-rule:evenodd;clip-rule:evenodd;stroke-linejoin:round;stroke-miterlimit:1.41421;"><g><path d="M6.097,16.559c-0.878,0 -1.65,-0.104 -2.317,-0.311c-0.667,-0.208 -1.232,-0.494 -1.695,-0.86c-0.463,-0.366 -0.831,-0.801 -1.103,-1.305c-0.273,-0.504 -0.462,-1.056 -0.567,-1.658l2.499,0c0.09,0.366 0.22,0.707 0.39,1.024c0.171,0.317 0.384,0.596 0.641,0.836c0.256,0.239 0.558,0.426 0.908,0.56c0.35,0.135 0.756,0.202 1.219,0.202c0.309,0 0.614,-0.033 0.915,-0.098c0.301,-0.065 0.569,-0.171 0.805,-0.317c0.235,-0.146 0.426,-0.339 0.573,-0.579c0.146,-0.24 0.219,-0.531 0.219,-0.872c0,-0.439 -0.114,-0.829 -0.341,-1.171c-0.228,-0.341 -0.525,-0.652 -0.89,-0.932c-0.366,-0.281 -0.785,-0.543 -1.256,-0.787c-0.472,-0.244 -0.955,-0.488 -1.451,-0.731c-0.496,-0.244 -0.98,-0.498 -1.451,-0.762c-0.472,-0.265 -0.89,-0.563 -1.256,-0.897c-0.366,-0.333 -0.663,-0.707 -0.89,-1.121c-0.228,-0.415 -0.342,-0.891 -0.342,-1.427c0,-0.585 0.128,-1.128 0.384,-1.628c0.256,-0.5 0.628,-0.935 1.116,-1.305c0.488,-0.369 1.085,-0.658 1.792,-0.865c0.708,-0.208 1.508,-0.311 2.403,-0.311c0.739,0 1.412,0.103 2.018,0.311c0.605,0.207 1.138,0.489 1.597,0.847c0.459,0.358 0.845,0.778 1.158,1.262c0.313,0.484 0.555,1.006 0.726,1.567l-2.28,0c-0.13,-0.35 -0.283,-0.685 -0.458,-1.006c-0.174,-0.321 -0.39,-0.602 -0.646,-0.841c-0.256,-0.24 -0.565,-0.431 -0.927,-0.573c-0.361,-0.143 -0.79,-0.214 -1.286,-0.214c-0.471,0 -0.87,0.061 -1.195,0.183c-0.325,0.122 -0.587,0.279 -0.786,0.47c-0.2,0.191 -0.344,0.404 -0.433,0.64c-0.09,0.235 -0.134,0.467 -0.134,0.695c0,0.398 0.115,0.756 0.347,1.073c0.232,0.317 0.539,0.613 0.921,0.89c0.382,0.276 0.817,0.538 1.304,0.786c0.488,0.248 0.986,0.5 1.494,0.756c0.508,0.256 1.006,0.525 1.494,0.805c0.487,0.281 0.922,0.587 1.304,0.921c0.382,0.333 0.689,0.703 0.921,1.109c0.232,0.407 0.348,0.866 0.348,1.378c0,0.602 -0.124,1.161 -0.372,1.677c-0.248,0.516 -0.616,0.965 -1.104,1.347c-0.488,0.382 -1.093,0.683 -1.817,0.902c-0.723,0.22 -1.556,0.33 -2.499,0.33Z" style="fill-rule:nonzero;"/><path d="M16.632,4.999l2.926,6.731l2.89,-6.804l0.683,0l2.938,6.706l2.854,-6.633l2.195,0l-4.975,11.572l-1.561,0l-2.414,-5.585l-2.403,5.585l-1.658,0l-5.024,-11.572l3.549,0Z" style="fill-rule:nonzero;"/><path d="M32.666,5.804l3.365,-0.927l0,11.45l-3.365,0l0,-10.523Zm-0.146,-4.158c0,-0.228 0.046,-0.441 0.14,-0.64c0.093,-0.199 0.221,-0.374 0.384,-0.524c0.163,-0.151 0.354,-0.269 0.573,-0.354c0.22,-0.085 0.455,-0.128 0.707,-0.128c0.252,0 0.49,0.043 0.714,0.128c0.223,0.085 0.416,0.203 0.579,0.354c0.162,0.15 0.293,0.325 0.39,0.524c0.098,0.199 0.146,0.412 0.146,0.64c0,0.228 -0.048,0.441 -0.146,0.64c-0.097,0.199 -0.228,0.374 -0.39,0.525c-0.163,0.15 -0.356,0.268 -0.579,0.353c-0.224,0.086 -0.462,0.128 -0.714,0.128c-0.252,0 -0.487,-0.042 -0.707,-0.128c-0.219,-0.085 -0.41,-0.203 -0.573,-0.353c-0.163,-0.151 -0.291,-0.326 -0.384,-0.525c-0.094,-0.199 -0.14,-0.412 -0.14,-0.64Z" style="fill-rule:nonzero;"/><path d="M52.566,8.767c0,-0.244 -0.031,-0.478 -0.092,-0.701c-0.061,-0.224 -0.144,-0.417 -0.25,-0.579c-0.105,-0.163 -0.231,-0.293 -0.378,-0.39c-0.146,-0.098 -0.305,-0.147 -0.475,-0.147c-0.195,0 -0.399,0.033 -0.61,0.098c-0.211,0.065 -0.419,0.152 -0.622,0.262c-0.203,0.11 -0.398,0.238 -0.585,0.384c-0.187,0.146 -0.346,0.301 -0.476,0.463l0,8.17l-3.353,0l0,-7.56c0,-0.244 -0.032,-0.478 -0.097,-0.701c-0.065,-0.224 -0.153,-0.417 -0.263,-0.579c-0.109,-0.163 -0.237,-0.293 -0.384,-0.39c-0.146,-0.098 -0.296,-0.147 -0.451,-0.147c-0.179,0 -0.372,0.033 -0.579,0.098c-0.207,0.065 -0.412,0.152 -0.616,0.262c-0.203,0.11 -0.402,0.238 -0.597,0.384c-0.195,0.146 -0.37,0.301 -0.525,0.463l0,8.17l-3.365,0l0,-11.12l3.365,0l0,0.951c0.537,-0.358 1.088,-0.645 1.653,-0.86c0.565,-0.215 1.111,-0.323 1.64,-0.323c0.292,0 0.587,0.032 0.884,0.097c0.296,0.065 0.581,0.159 0.853,0.281c0.273,0.122 0.523,0.268 0.75,0.439c0.228,0.171 0.423,0.366 0.585,0.585c0.252,-0.203 0.533,-0.392 0.842,-0.567c0.309,-0.175 0.632,-0.323 0.969,-0.445c0.338,-0.122 0.681,-0.217 1.03,-0.286c0.35,-0.07 0.696,-0.104 1.037,-0.104c0.471,0 0.921,0.091 1.347,0.274c0.427,0.183 0.801,0.435 1.122,0.756c0.321,0.321 0.575,0.695 0.762,1.122c0.187,0.427 0.281,0.884 0.281,1.372l0,7.828l-3.402,0l0,-7.56Z" style="fill-rule:nonzero;"/><path d="M13.827,22.937l0,1.244l-5.109,0l0,13.51l-3.609,0l0,-13.51l-5.109,0l0,-1.244l13.827,0Z" style="fill-rule:nonzero;"/><path d="M19.156,37.935c-0.797,0 -1.541,-0.146 -2.232,-0.439c-0.691,-0.293 -1.296,-0.687 -1.816,-1.183c-0.521,-0.496 -0.929,-1.075 -1.226,-1.737c-0.297,-0.663 -0.445,-1.36 -0.445,-2.092c0,-0.878 0.138,-1.69 0.415,-2.438c0.276,-0.748 0.666,-1.396 1.17,-1.945c0.504,-0.549 1.112,-0.98 1.823,-1.293c0.711,-0.313 1.502,-0.469 2.372,-0.469c0.78,0 1.491,0.124 2.134,0.372c0.642,0.248 1.193,0.585 1.652,1.012c0.459,0.427 0.817,0.931 1.073,1.512c0.256,0.581 0.384,1.201 0.384,1.859l-7.706,0c0.024,0.618 0.111,1.207 0.262,1.768c0.15,0.561 0.358,1.055 0.622,1.482c0.264,0.427 0.573,0.766 0.926,1.018c0.354,0.252 0.746,0.378 1.177,0.378c0.374,0 0.74,-0.065 1.097,-0.195c0.358,-0.13 0.689,-0.305 0.994,-0.524c0.305,-0.22 0.569,-0.478 0.793,-0.775c0.223,-0.296 0.384,-0.611 0.481,-0.945l1.732,0.256c-0.171,0.602 -0.447,1.169 -0.829,1.701c-0.382,0.533 -0.831,0.998 -1.348,1.397c-0.516,0.398 -1.077,0.711 -1.682,0.938c-0.606,0.228 -1.214,0.342 -1.823,0.342Zm1.426,-7.987c-0.024,-0.325 -0.093,-0.624 -0.207,-0.896c-0.114,-0.272 -0.26,-0.506 -0.439,-0.701c-0.179,-0.195 -0.384,-0.346 -0.616,-0.451c-0.231,-0.106 -0.481,-0.159 -0.749,-0.159c-0.212,0 -0.417,0.053 -0.616,0.159c-0.199,0.105 -0.382,0.254 -0.549,0.445c-0.167,0.191 -0.307,0.422 -0.421,0.695c-0.113,0.272 -0.187,0.575 -0.219,0.908l3.816,0Z" style="fill-rule:nonzero;"/><path d="M32.41,31.936c-0.325,0.138 -0.654,0.298 -0.988,0.481c-0.333,0.183 -0.634,0.384 -0.902,0.604c-0.268,0.219 -0.486,0.451 -0.652,0.695c-0.167,0.244 -0.25,0.5 -0.25,0.768c0,0.211 0.028,0.413 0.085,0.604c0.057,0.191 0.132,0.357 0.226,0.5c0.093,0.142 0.201,0.256 0.323,0.341c0.122,0.085 0.252,0.128 0.39,0.128c0.268,0 0.545,-0.085 0.829,-0.256c0.285,-0.171 0.598,-0.382 0.939,-0.634l0,-3.231Zm3.39,5.755l-3.39,0l0,-0.89c-0.187,0.154 -0.37,0.299 -0.549,0.433c-0.179,0.134 -0.376,0.25 -0.591,0.347c-0.215,0.098 -0.463,0.175 -0.744,0.232c-0.28,0.057 -0.608,0.085 -0.981,0.085c-0.513,0 -0.974,-0.073 -1.384,-0.219c-0.411,-0.147 -0.758,-0.348 -1.043,-0.604c-0.284,-0.256 -0.504,-0.561 -0.658,-0.914c-0.155,-0.354 -0.232,-0.734 -0.232,-1.14c0,-0.431 0.081,-0.817 0.244,-1.159c0.162,-0.341 0.384,-0.65 0.664,-0.926c0.281,-0.277 0.61,-0.525 0.988,-0.744c0.378,-0.22 0.782,-0.421 1.213,-0.604c0.431,-0.183 0.876,-0.349 1.335,-0.5c0.46,-0.15 0.917,-0.298 1.372,-0.445l0.366,-0.085l0,-1.11c0,-0.707 -0.136,-1.209 -0.408,-1.506c-0.273,-0.296 -0.632,-0.445 -1.08,-0.445c-0.268,0 -0.493,0.035 -0.676,0.104c-0.183,0.069 -0.33,0.165 -0.439,0.286c-0.11,0.122 -0.187,0.263 -0.232,0.421c-0.045,0.159 -0.067,0.327 -0.067,0.506c0,0.212 -0.022,0.415 -0.067,0.61c-0.045,0.195 -0.124,0.368 -0.238,0.518c-0.114,0.15 -0.27,0.27 -0.469,0.36c-0.199,0.089 -0.453,0.134 -0.762,0.134c-0.48,0 -0.866,-0.136 -1.159,-0.409c-0.292,-0.272 -0.439,-0.611 -0.439,-1.018c0,-0.39 0.13,-0.75 0.39,-1.079c0.261,-0.329 0.614,-0.614 1.061,-0.853c0.447,-0.24 0.964,-0.427 1.549,-0.561c0.585,-0.134 1.203,-0.201 1.853,-0.201c0.797,0 1.484,0.071 2.061,0.213c0.577,0.142 1.051,0.345 1.42,0.61c0.37,0.264 0.645,0.583 0.824,0.957c0.178,0.374 0.268,0.792 0.268,1.256l0,8.34Z" style="fill-rule:nonzero;"/><path d="M52.468,30.131c0,-0.244 -0.03,-0.478 -0.091,-0.701c-0.061,-0.224 -0.145,-0.417 -0.25,-0.579c-0.106,-0.163 -0.232,-0.293 -0.378,-0.39c-0.147,-0.098 -0.305,-0.147 -0.476,-0.147c-0.195,0 -0.398,0.033 -0.609,0.098c-0.212,0.065 -0.419,0.152 -0.622,0.262c-0.204,0.11 -0.399,0.238 -0.586,0.384c-0.187,0.146 -0.345,0.301 -0.475,0.463l0,8.17l-3.353,0l0,-7.56c0,-0.244 -0.033,-0.478 -0.098,-0.701c-0.065,-0.224 -0.152,-0.417 -0.262,-0.579c-0.11,-0.163 -0.238,-0.293 -0.384,-0.39c-0.146,-0.098 -0.297,-0.147 -0.451,-0.147c-0.179,0 -0.372,0.033 -0.579,0.098c-0.208,0.065 -0.413,0.152 -0.616,0.262c-0.203,0.11 -0.403,0.238 -0.598,0.384c-0.195,0.146 -0.37,0.301 -0.524,0.463l0,8.17l-3.365,0l0,-11.12l3.365,0l0,0.951c0.536,-0.358 1.087,-0.645 1.652,-0.86c0.565,-0.215 1.112,-0.323 1.64,-0.323c0.293,0 0.587,0.032 0.884,0.097c0.297,0.066 0.581,0.159 0.854,0.281c0.272,0.122 0.522,0.268 0.75,0.439c0.227,0.171 0.422,0.366 0.585,0.585c0.252,-0.203 0.532,-0.392 0.841,-0.567c0.309,-0.175 0.632,-0.323 0.97,-0.445c0.337,-0.122 0.68,-0.217 1.03,-0.286c0.349,-0.07 0.695,-0.104 1.036,-0.104c0.472,0 0.921,0.091 1.348,0.274c0.427,0.183 0.8,0.435 1.122,0.756c0.321,0.321 0.575,0.695 0.762,1.122c0.187,0.427 0.28,0.884 0.28,1.372l0,7.828l-3.402,0l0,-7.56Z" style="fill-rule:nonzero;"/></g></svg>